<svg width="69" height="11" viewBox="0 0 69 11" fill="none" xmlns="http://www.w3.org/2000/svg">
<path d="M6.462 4.946C7.14333 5.086 7.66133 5.36133 8.016 5.772C8.37067 6.17333 8.548 6.70067 8.548 7.354C8.548 8.20333 8.24467 8.85667 7.638 9.314C7.04067 9.77133 6.15867 10 4.992 10H0.652V0.199999H4.726C5.77133 0.199999 6.588 0.414666 7.176 0.843999C7.764 1.27333 8.058 1.894 8.058 2.706C8.058 3.25667 7.918 3.72333 7.638 4.106C7.358 4.47933 6.966 4.75933 6.462 4.946ZM1.674 4.638H4.67C5.426 4.638 6.00467 4.484 6.406 4.176C6.81667 3.868 7.022 3.42 7.022 2.832C7.022 2.244 6.81667 1.796 6.406 1.488C6.00467 1.18 5.426 1.026 4.67 1.026H1.674V4.638ZM4.992 9.174C6.68133 9.174 7.526 8.544 7.526 7.284C7.526 6.052 6.68133 5.436 4.992 5.436H1.674V9.174H4.992ZM13.4343 2.58C14.3957 2.58 15.133 2.82267 15.6463 3.308C16.1597 3.784 16.4163 4.49333 16.4163 5.436V10H15.4643V8.852C15.2403 9.23467 14.909 9.53333 14.4703 9.748C14.041 9.96267 13.5277 10.07 12.9303 10.07C12.109 10.07 11.4557 9.874 10.9703 9.482C10.485 9.09 10.2423 8.572 10.2423 7.928C10.2423 7.30267 10.4663 6.79867 10.9143 6.416C11.3717 6.03333 12.095 5.842 13.0843 5.842H15.4223V5.394C15.4223 4.75933 15.245 4.27867 14.8903 3.952C14.5357 3.616 14.0177 3.448 13.3363 3.448C12.8697 3.448 12.4217 3.52733 11.9923 3.686C11.563 3.83533 11.1943 4.04533 10.8863 4.316L10.4383 3.574C10.8117 3.25667 11.2597 3.014 11.7823 2.846C12.305 2.66867 12.8557 2.58 13.4343 2.58ZM13.0843 9.286C13.6443 9.286 14.125 9.16 14.5263 8.908C14.9277 8.64667 15.2263 8.27333 15.4223 7.788V6.584H13.1123C11.8523 6.584 11.2223 7.02267 11.2223 7.9C11.2223 8.32933 11.3857 8.67 11.7123 8.922C12.039 9.16467 12.4963 9.286 13.0843 9.286ZM21.7364 6.724H20.0564V10H19.0624V2.636H20.0564V5.87H21.7504L24.3404 2.636H25.4184L22.5204 6.206L25.6284 10H24.4524L21.7364 6.724ZM29.5945 2.58C30.5558 2.58 31.2932 2.82267 31.8065 3.308C32.3198 3.784 32.5765 4.49333 32.5765 5.436V10H31.6245V8.852C31.4005 9.23467 31.0692 9.53333 30.6305 9.748C30.2012 9.96267 29.6878 10.07 29.0905 10.07C28.2692 10.07 27.6158 9.874 27.1305 9.482C26.6452 9.09 26.4025 8.572 26.4025 7.928C26.4025 7.30267 26.6265 6.79867 27.0745 6.416C27.5318 6.03333 28.2552 5.842 29.2445 5.842H31.5825V5.394C31.5825 4.75933 31.4052 4.27867 31.0505 3.952C30.6958 3.616 30.1778 3.448 29.4965 3.448C29.0298 3.448 28.5818 3.52733 28.1525 3.686C27.7232 3.83533 27.3545 4.04533 27.0465 4.316L26.5985 3.574C26.9718 3.25667 27.4198 3.014 27.9425 2.846C28.4652 2.66867 29.0158 2.58 29.5945 2.58ZM29.2445 9.286C29.8045 9.286 30.2852 9.16 30.6865 8.908C31.0878 8.64667 31.3865 8.27333 31.5825 7.788V6.584H29.2725C28.0125 6.584 27.3825 7.02267 27.3825 7.9C27.3825 8.32933 27.5458 8.67 27.8725 8.922C28.1992 9.16467 28.6565 9.286 29.2445 9.286ZM35.2226 2.636H36.2166V5.898H40.8506V2.636H41.8446V10H40.8506V6.752H36.2166V10H35.2226V2.636ZM47.7499 10.07C47.0219 10.07 46.3685 9.91133 45.7899 9.594C45.2205 9.27667 44.7725 8.83333 44.4459 8.264C44.1192 7.68533 43.9559 7.03667 43.9559 6.318C43.9559 5.59933 44.1192 4.95533 44.4459 4.386C44.7725 3.81667 45.2205 3.37333 45.7899 3.056C46.3685 2.73867 47.0219 2.58 47.7499 2.58C48.3845 2.58 48.9492 2.706 49.4439 2.958C49.9479 3.20067 50.3445 3.56 50.6339 4.036L49.8919 4.54C49.6492 4.176 49.3412 3.90533 48.9679 3.728C48.5945 3.54133 48.1885 3.448 47.7499 3.448C47.2179 3.448 46.7372 3.56933 46.3079 3.812C45.8879 4.04533 45.5565 4.38133 45.3139 4.82C45.0805 5.25867 44.9639 5.758 44.9639 6.318C44.9639 6.88733 45.0805 7.39133 45.3139 7.83C45.5565 8.25933 45.8879 8.59533 46.3079 8.838C46.7372 9.07133 47.2179 9.188 47.7499 9.188C48.1885 9.188 48.5945 9.09933 48.9679 8.922C49.3412 8.74467 49.6492 8.474 49.8919 8.11L50.6339 8.614C50.3445 9.09 49.9479 9.454 49.4439 9.706C48.9399 9.94867 48.3752 10.07 47.7499 10.07ZM52.5585 2.636H53.5525V8.488L58.4665 2.636H59.3485V10H58.3545V4.148L53.4545 10H52.5585V2.636ZM62.1972 2.636H63.1912V8.488L68.1052 2.636H68.9872V10H67.9932V4.148L63.0932 10H62.1972V2.636Z" fill="#1F2041" fill-opacity="0.5"/>
</svg>
