<svg width="60" height="11" viewBox="0 0 60 11" fill="none" xmlns="http://www.w3.org/2000/svg">
<path d="M8.842 0.199999V10H7.82V5.478H1.688V10H0.652V0.199999H1.688V4.568H7.82V0.199999H8.842ZM14.95 10.07C14.2407 10.07 13.6014 9.91133 13.032 9.594C12.4627 9.26733 12.0147 8.81933 11.688 8.25C11.3614 7.68067 11.198 7.03667 11.198 6.318C11.198 5.59933 11.3614 4.95533 11.688 4.386C12.0147 3.81667 12.4627 3.37333 13.032 3.056C13.6014 2.73867 14.2407 2.58 14.95 2.58C15.6594 2.58 16.2987 2.73867 16.868 3.056C17.4374 3.37333 17.8807 3.81667 18.198 4.386C18.5247 4.95533 18.688 5.59933 18.688 6.318C18.688 7.03667 18.5247 7.68067 18.198 8.25C17.8807 8.81933 17.4374 9.26733 16.868 9.594C16.2987 9.91133 15.6594 10.07 14.95 10.07ZM14.95 9.188C15.4727 9.188 15.9394 9.07133 16.35 8.838C16.77 8.59533 17.0967 8.25467 17.33 7.816C17.5634 7.37733 17.68 6.878 17.68 6.318C17.68 5.758 17.5634 5.25867 17.33 4.82C17.0967 4.38133 16.77 4.04533 16.35 3.812C15.9394 3.56933 15.4727 3.448 14.95 3.448C14.4274 3.448 13.956 3.56933 13.536 3.812C13.1254 4.04533 12.7987 4.38133 12.556 4.82C12.3227 5.25867 12.206 5.758 12.206 6.318C12.206 6.878 12.3227 7.37733 12.556 7.816C12.7987 8.25467 13.1254 8.59533 13.536 8.838C13.956 9.07133 14.4274 9.188 14.95 9.188ZM25.5024 6.192C26.5011 6.42533 27.0004 7.02733 27.0004 7.998C27.0004 8.642 26.7624 9.13667 26.2864 9.482C25.8104 9.82733 25.1011 10 24.1584 10H20.8124V2.636H24.0604C24.9004 2.636 25.5584 2.79933 26.0344 3.126C26.5104 3.45267 26.7484 3.91933 26.7484 4.526C26.7484 4.92733 26.6364 5.27267 26.4124 5.562C26.1978 5.842 25.8944 6.052 25.5024 6.192ZM21.7784 5.912H23.9904C24.5598 5.912 24.9938 5.80467 25.2924 5.59C25.6004 5.37533 25.7544 5.06267 25.7544 4.652C25.7544 4.24133 25.6004 3.93333 25.2924 3.728C24.9938 3.52267 24.5598 3.42 23.9904 3.42H21.7784V5.912ZM24.1164 9.216C24.7511 9.216 25.2271 9.11333 25.5444 8.908C25.8618 8.70267 26.0204 8.38067 26.0204 7.942C26.0204 7.50333 25.8758 7.18133 25.5864 6.976C25.2971 6.76133 24.8398 6.654 24.2144 6.654H21.7784V9.216H24.1164ZM32.368 10.07C31.6587 10.07 31.0193 9.91133 30.45 9.594C29.8807 9.26733 29.4327 8.81933 29.106 8.25C28.7793 7.68067 28.616 7.03667 28.616 6.318C28.616 5.59933 28.7793 4.95533 29.106 4.386C29.4327 3.81667 29.8807 3.37333 30.45 3.056C31.0193 2.73867 31.6587 2.58 32.368 2.58C33.0773 2.58 33.7167 2.73867 34.286 3.056C34.8553 3.37333 35.2987 3.81667 35.616 4.386C35.9427 4.95533 36.106 5.59933 36.106 6.318C36.106 7.03667 35.9427 7.68067 35.616 8.25C35.2987 8.81933 34.8553 9.26733 34.286 9.594C33.7167 9.91133 33.0773 10.07 32.368 10.07ZM32.368 9.188C32.8907 9.188 33.3573 9.07133 33.768 8.838C34.188 8.59533 34.5147 8.25467 34.748 7.816C34.9813 7.37733 35.098 6.878 35.098 6.318C35.098 5.758 34.9813 5.25867 34.748 4.82C34.5147 4.38133 34.188 4.04533 33.768 3.812C33.3573 3.56933 32.8907 3.448 32.368 3.448C31.8453 3.448 31.374 3.56933 30.954 3.812C30.5433 4.04533 30.2167 4.38133 29.974 4.82C29.7407 5.25867 29.624 5.758 29.624 6.318C29.624 6.878 29.7407 7.37733 29.974 7.816C30.2167 8.25467 30.5433 8.59533 30.954 8.838C31.374 9.07133 31.8453 9.188 32.368 9.188ZM41.3104 10.07C40.5824 10.07 39.9291 9.91133 39.3504 9.594C38.7811 9.27667 38.3331 8.83333 38.0064 8.264C37.6797 7.68533 37.5164 7.03667 37.5164 6.318C37.5164 5.59933 37.6797 4.95533 38.0064 4.386C38.3331 3.81667 38.7811 3.37333 39.3504 3.056C39.9291 2.73867 40.5824 2.58 41.3104 2.58C41.9451 2.58 42.5097 2.706 43.0044 2.958C43.5084 3.20067 43.9051 3.56 44.1944 4.036L43.4524 4.54C43.2097 4.176 42.9017 3.90533 42.5284 3.728C42.1551 3.54133 41.7491 3.448 41.3104 3.448C40.7784 3.448 40.2977 3.56933 39.8684 3.812C39.4484 4.04533 39.1171 4.38133 38.8744 4.82C38.6411 5.25867 38.5244 5.758 38.5244 6.318C38.5244 6.88733 38.6411 7.39133 38.8744 7.83C39.1171 8.25933 39.4484 8.59533 39.8684 8.838C40.2977 9.07133 40.7784 9.188 41.3104 9.188C41.7491 9.188 42.1551 9.09933 42.5284 8.922C42.9017 8.74467 43.2097 8.474 43.4524 8.11L44.1944 8.614C43.9051 9.09 43.5084 9.454 43.0044 9.706C42.5004 9.94867 41.9357 10.07 41.3104 10.07ZM51.1624 3.518H48.3764V10H47.3824V3.518H44.5964V2.636H51.1624V3.518ZM52.5995 2.636H53.5935V8.488L58.5075 2.636H59.3895V10H58.3955V4.148L53.4955 10H52.5995V2.636Z" fill="#1F2041" fill-opacity="0.5"/>
</svg>
