<svg width="41" height="11" viewBox="0 0 41 11" fill="none" xmlns="http://www.w3.org/2000/svg">
<path d="M5.95 10.084C4.97933 10.084 4.09733 9.86933 3.304 9.44C2.52 9.00133 1.904 8.404 1.456 7.648C1.01733 6.892 0.798 6.04267 0.798 5.1C0.798 4.15733 1.01733 3.308 1.456 2.552C1.904 1.796 2.52 1.20333 3.304 0.773999C4.09733 0.335333 4.97933 0.116 5.95 0.116C6.92067 0.116 7.79333 0.330666 8.568 0.76C9.352 1.18933 9.968 1.78667 10.416 2.552C10.864 3.308 11.088 4.15733 11.088 5.1C11.088 6.04267 10.864 6.89667 10.416 7.662C9.968 8.418 9.352 9.01067 8.568 9.44C7.79333 9.86933 6.92067 10.084 5.95 10.084ZM5.95 9.16C6.72467 9.16 7.42467 8.98733 8.05 8.642C8.67533 8.28733 9.16533 7.802 9.52 7.186C9.87467 6.56067 10.052 5.86533 10.052 5.1C10.052 4.33467 9.87467 3.644 9.52 3.028C9.16533 2.40267 8.67533 1.91733 8.05 1.572C7.42467 1.21733 6.72467 1.04 5.95 1.04C5.17533 1.04 4.47067 1.21733 3.836 1.572C3.21067 1.91733 2.716 2.40267 2.352 3.028C1.99733 3.644 1.82 4.33467 1.82 5.1C1.82 5.86533 1.99733 6.56067 2.352 7.186C2.716 7.802 3.21067 8.28733 3.836 8.642C4.47067 8.98733 5.17533 9.16 5.95 9.16ZM16.9863 2.636H17.9803V5.898H22.6143V2.636H23.6083V10H22.6143V6.752H17.9803V10H16.9863V2.636ZM28.9675 2.58C29.9289 2.58 30.6662 2.82267 31.1795 3.308C31.6929 3.784 31.9495 4.49333 31.9495 5.436V10H30.9975V8.852C30.7735 9.23467 30.4422 9.53333 30.0035 9.748C29.5742 9.96267 29.0609 10.07 28.4635 10.07C27.6422 10.07 26.9889 9.874 26.5035 9.482C26.0182 9.09 25.7755 8.572 25.7755 7.928C25.7755 7.30267 25.9995 6.79867 26.4475 6.416C26.9049 6.03333 27.6282 5.842 28.6175 5.842H30.9555V5.394C30.9555 4.75933 30.7782 4.27867 30.4235 3.952C30.0689 3.616 29.5509 3.448 28.8695 3.448C28.4029 3.448 27.9549 3.52733 27.5255 3.686C27.0962 3.83533 26.7275 4.04533 26.4195 4.316L25.9715 3.574C26.3449 3.25667 26.7929 3.014 27.3155 2.846C27.8382 2.66867 28.3889 2.58 28.9675 2.58ZM28.6175 9.286C29.1775 9.286 29.6582 9.16 30.0595 8.908C30.4609 8.64667 30.7595 8.27333 30.9555 7.788V6.584H28.6455C27.3855 6.584 26.7555 7.02267 26.7555 7.9C26.7555 8.32933 26.9189 8.67 27.2455 8.922C27.5722 9.16467 28.0295 9.286 28.6175 9.286ZM37.6756 10.07C36.9476 10.07 36.2943 9.91133 35.7156 9.594C35.1463 9.27667 34.6983 8.83333 34.3716 8.264C34.045 7.68533 33.8816 7.03667 33.8816 6.318C33.8816 5.59933 34.045 4.95533 34.3716 4.386C34.6983 3.81667 35.1463 3.37333 35.7156 3.056C36.2943 2.73867 36.9476 2.58 37.6756 2.58C38.3103 2.58 38.875 2.706 39.3696 2.958C39.8736 3.20067 40.2703 3.56 40.5596 4.036L39.8176 4.54C39.575 4.176 39.267 3.90533 38.8936 3.728C38.5203 3.54133 38.1143 3.448 37.6756 3.448C37.1436 3.448 36.663 3.56933 36.2336 3.812C35.8136 4.04533 35.4823 4.38133 35.2396 4.82C35.0063 5.25867 34.8896 5.758 34.8896 6.318C34.8896 6.88733 35.0063 7.39133 35.2396 7.83C35.4823 8.25933 35.8136 8.59533 36.2336 8.838C36.663 9.07133 37.1436 9.188 37.6756 9.188C38.1143 9.188 38.5203 9.09933 38.8936 8.922C39.267 8.74467 39.575 8.474 39.8176 8.11L40.5596 8.614C40.2703 9.09 39.8736 9.454 39.3696 9.706C38.8656 9.94867 38.301 10.07 37.6756 10.07Z" fill="#1F2041" fill-opacity="0.5"/>
</svg>
