<svg width="90" height="11" viewBox="0 0 90 11" fill="none" xmlns="http://www.w3.org/2000/svg">
<path d="M5.936 10.084C4.96533 10.084 4.088 9.86933 3.304 9.44C2.52933 9.01067 1.918 8.418 1.47 7.662C1.03133 6.89667 0.812 6.04267 0.812 5.1C0.812 4.15733 1.03133 3.308 1.47 2.552C1.918 1.78667 2.534 1.18933 3.318 0.76C4.102 0.330666 4.97933 0.116 5.95 0.116C6.678 0.116 7.35 0.237333 7.966 0.48C8.582 0.722666 9.10467 1.07733 9.534 1.544L8.876 2.202C8.11067 1.42733 7.14467 1.04 5.978 1.04C5.20333 1.04 4.49867 1.21733 3.864 1.572C3.22933 1.92667 2.73 2.412 2.366 3.028C2.01133 3.644 1.834 4.33467 1.834 5.1C1.834 5.86533 2.01133 6.556 2.366 7.172C2.73 7.788 3.22933 8.27333 3.864 8.628C4.49867 8.98267 5.20333 9.16 5.978 9.16C7.154 9.16 8.12 8.768 8.876 7.984L9.534 8.642C9.10467 9.10867 8.57733 9.468 7.952 9.72C7.336 9.96267 6.664 10.084 5.936 10.084ZM14.1454 10.07C13.436 10.07 12.7967 9.91133 12.2274 9.594C11.658 9.26733 11.21 8.81933 10.8834 8.25C10.5567 7.68067 10.3934 7.03667 10.3934 6.318C10.3934 5.59933 10.5567 4.95533 10.8834 4.386C11.21 3.81667 11.658 3.37333 12.2274 3.056C12.7967 2.73867 13.436 2.58 14.1454 2.58C14.8547 2.58 15.494 2.73867 16.0634 3.056C16.6327 3.37333 17.076 3.81667 17.3934 4.386C17.72 4.95533 17.8834 5.59933 17.8834 6.318C17.8834 7.03667 17.72 7.68067 17.3934 8.25C17.076 8.81933 16.6327 9.26733 16.0634 9.594C15.494 9.91133 14.8547 10.07 14.1454 10.07ZM14.1454 9.188C14.668 9.188 15.1347 9.07133 15.5454 8.838C15.9654 8.59533 16.292 8.25467 16.5254 7.816C16.7587 7.37733 16.8754 6.878 16.8754 6.318C16.8754 5.758 16.7587 5.25867 16.5254 4.82C16.292 4.38133 15.9654 4.04533 15.5454 3.812C15.1347 3.56933 14.668 3.448 14.1454 3.448C13.6227 3.448 13.1514 3.56933 12.7314 3.812C12.3207 4.04533 11.994 4.38133 11.7514 4.82C11.518 5.25867 11.4014 5.758 11.4014 6.318C11.4014 6.878 11.518 7.37733 11.7514 7.816C11.994 8.25467 12.3207 8.59533 12.7314 8.838C13.1514 9.07133 13.6227 9.188 14.1454 9.188ZM25.2158 3.518H21.0018V10H20.0078V2.636H25.2158V3.518ZM32.2211 2.636V10H31.2271V3.518H27.6991L27.6011 5.338C27.5264 6.86867 27.3491 8.04467 27.0691 8.866C26.7891 9.68733 26.2898 10.098 25.5711 10.098C25.3751 10.098 25.1371 10.0607 24.8571 9.986L24.9271 9.132C25.0951 9.16933 25.2118 9.188 25.2771 9.188C25.6598 9.188 25.9491 9.01067 26.1451 8.656C26.3411 8.30133 26.4718 7.86267 26.5371 7.34C26.6024 6.81733 26.6584 6.12667 26.7051 5.268L26.8311 2.636H32.2211ZM37.5808 2.58C38.5421 2.58 39.2795 2.82267 39.7928 3.308C40.3061 3.784 40.5628 4.49333 40.5628 5.436V10H39.6108V8.852C39.3868 9.23467 39.0555 9.53333 38.6168 9.748C38.1875 9.96267 37.6741 10.07 37.0768 10.07C36.2555 10.07 35.6021 9.874 35.1168 9.482C34.6315 9.09 34.3888 8.572 34.3888 7.928C34.3888 7.30267 34.6128 6.79867 35.0608 6.416C35.5181 6.03333 36.2415 5.842 37.2308 5.842H39.5688V5.394C39.5688 4.75933 39.3915 4.27867 39.0368 3.952C38.6821 3.616 38.1641 3.448 37.4828 3.448C37.0161 3.448 36.5681 3.52733 36.1388 3.686C35.7095 3.83533 35.3408 4.04533 35.0328 4.316L34.5848 3.574C34.9581 3.25667 35.4061 3.014 35.9288 2.846C36.4515 2.66867 37.0021 2.58 37.5808 2.58ZM37.2308 9.286C37.7908 9.286 38.2715 9.16 38.6728 8.908C39.0741 8.64667 39.3728 8.27333 39.5688 7.788V6.584H37.2588C35.9988 6.584 35.3688 7.02267 35.3688 7.9C35.3688 8.32933 35.5321 8.67 35.8588 8.922C36.1855 9.16467 36.6428 9.286 37.2308 9.286ZM53.3729 2.636V10H43.2089V2.636H44.2029V9.132H47.8149V2.636H48.8089V9.132H52.3789V2.636H53.3729ZM62.6509 6.626H56.4909C56.5469 7.39133 56.8409 8.012 57.3729 8.488C57.9049 8.95467 58.5769 9.188 59.3889 9.188C59.8462 9.188 60.2662 9.10867 60.6489 8.95C61.0315 8.782 61.3629 8.53933 61.6429 8.222L62.2029 8.866C61.8762 9.258 61.4655 9.55667 60.9709 9.762C60.4855 9.96733 59.9489 10.07 59.3609 10.07C58.6049 10.07 57.9329 9.91133 57.3449 9.594C56.7662 9.26733 56.3135 8.81933 55.9869 8.25C55.6602 7.68067 55.4969 7.03667 55.4969 6.318C55.4969 5.59933 55.6509 4.95533 55.9589 4.386C56.2762 3.81667 56.7055 3.37333 57.2469 3.056C57.7975 2.73867 58.4135 2.58 59.0949 2.58C59.7762 2.58 60.3875 2.73867 60.9289 3.056C61.4702 3.37333 61.8949 3.81667 62.2029 4.386C62.5109 4.946 62.6649 5.59 62.6649 6.318L62.6509 6.626ZM59.0949 3.434C58.3855 3.434 57.7882 3.66267 57.3029 4.12C56.8269 4.568 56.5562 5.156 56.4909 5.884H61.7129C61.6475 5.156 61.3722 4.568 60.8869 4.12C60.4109 3.66267 59.8135 3.434 59.0949 3.434ZM64.8652 2.636H65.8592V5.898H70.4932V2.636H71.4872V10H70.4932V6.752H65.8592V10H64.8652V2.636ZM74.3124 2.636H75.3064V8.488L80.2204 2.636H81.1024V10H80.1084V4.148L75.2084 10H74.3124V2.636ZM89.6071 2.636V10H88.6971V7.564H86.3871H86.1071L84.3991 10H83.3211L85.1551 7.424C84.5858 7.26533 84.1471 6.99467 83.8391 6.612C83.5311 6.22933 83.3771 5.744 83.3771 5.156C83.3771 4.33467 83.6571 3.70933 84.2171 3.28C84.7771 2.85067 85.5424 2.636 86.5131 2.636H89.6071ZM84.3851 5.184C84.3851 6.276 85.0804 6.822 86.4711 6.822H88.6971V3.518H86.5411C85.1038 3.518 84.3851 4.07333 84.3851 5.184Z" fill="#1F2041" fill-opacity="0.5"/>
</svg>
