<svg width="48" height="13" viewBox="0 0 48 13" fill="none" xmlns="http://www.w3.org/2000/svg">
<path d="M9.352 0.199999L4.9 8.446C4.58267 9.034 4.20933 9.47267 3.78 9.762C3.36 10.042 2.898 10.182 2.394 10.182C2.02067 10.182 1.61933 10.0933 1.19 9.916L1.484 9.076C1.82 9.20667 2.128 9.272 2.408 9.272C3.052 9.272 3.57933 8.922 3.99 8.222L4.27 7.746L0.294 0.199999H1.4L4.816 6.836L8.316 0.199999H9.352ZM13.244 10.07C12.516 10.07 11.8627 9.91133 11.284 9.594C10.7147 9.27667 10.2667 8.83333 9.94 8.264C9.61333 7.68533 9.45 7.03667 9.45 6.318C9.45 5.59933 9.61333 4.95533 9.94 4.386C10.2667 3.81667 10.7147 3.37333 11.284 3.056C11.8627 2.73867 12.516 2.58 13.244 2.58C13.8787 2.58 14.4433 2.706 14.938 2.958C15.442 3.20067 15.8387 3.56 16.128 4.036L15.386 4.54C15.1433 4.176 14.8353 3.90533 14.462 3.728C14.0887 3.54133 13.6827 3.448 13.244 3.448C12.712 3.448 12.2313 3.56933 11.802 3.812C11.382 4.04533 11.0507 4.38133 10.808 4.82C10.5747 5.25867 10.458 5.758 10.458 6.318C10.458 6.88733 10.5747 7.39133 10.808 7.83C11.0507 8.25933 11.382 8.59533 11.802 8.838C12.2313 9.07133 12.712 9.188 13.244 9.188C13.6827 9.188 14.0887 9.09933 14.462 8.922C14.8353 8.74467 15.1433 8.474 15.386 8.11L16.128 8.614C15.8387 9.09 15.442 9.454 14.938 9.706C14.434 9.94867 13.8693 10.07 13.244 10.07ZM23.8266 2.636V10H22.8326V3.518H19.3046L19.2066 5.338C19.1319 6.86867 18.9546 8.04467 18.6746 8.866C18.3946 9.68733 17.8952 10.098 17.1766 10.098C16.9806 10.098 16.7426 10.0607 16.4626 9.986L16.5326 9.132C16.7006 9.16933 16.8172 9.188 16.8826 9.188C17.2652 9.188 17.5546 9.01067 17.7506 8.656C17.9466 8.30133 18.0772 7.86267 18.1426 7.34C18.2079 6.81733 18.2639 6.12667 18.3106 5.268L18.4366 2.636H23.8266ZM32.9103 2.636L29.2283 10.882C28.9296 11.5727 28.5843 12.0627 28.1923 12.352C27.8003 12.6413 27.3289 12.786 26.7783 12.786C26.4236 12.786 26.0923 12.73 25.7843 12.618C25.4763 12.506 25.2103 12.338 24.9863 12.114L25.4483 11.372C25.8216 11.7453 26.2696 11.932 26.7923 11.932C27.1283 11.932 27.4129 11.8387 27.6463 11.652C27.8889 11.4653 28.1129 11.148 28.3183 10.7L28.6403 9.986L25.3503 2.636H26.3863L29.1583 8.894L31.9303 2.636H32.9103ZM39.6669 3.518H35.4529V10H34.4589V2.636H39.6669V3.518ZM41.1035 2.636H42.0975V8.488L47.0115 2.636H47.8935V10H46.8995V4.148L41.9995 10H41.1035V2.636Z" fill="#1F2041" fill-opacity="0.5"/>
</svg>
